<svg xmlns="http://www.w3.org/2000/svg" width="16" height="16" viewBox="0 0 16 16" fill="none">
  <path d="M11.8832 3.3272L3.32769 11.8828M4.88325 6.43831V3.3272M3.32769 4.88276H6.4388M8.77214 10.3272H11.8832M4.3388 14.605H10.8721C12.179 14.605 12.8323 14.605 13.3315 14.3506C13.7705 14.127 14.1274 13.77 14.3511 13.331C14.6055 12.8318 14.6055 12.1785 14.6055 10.8716V4.33831C14.6055 3.03152 14.6055 2.37813 14.3511 1.879C14.1274 1.43996 13.7705 1.083 13.3315 0.859298C12.8323 0.604981 12.179 0.60498 10.8721 0.60498H4.3388C3.03201 0.60498 2.37862 0.604981 1.87949 0.859298C1.44044 1.083 1.08349 1.43996 0.859787 1.879C0.605469 2.37813 0.605469 3.03152 0.605469 4.33831V10.8716C0.605469 12.1785 0.605469 12.8318 0.859787 13.331C1.08349 13.77 1.44044 14.127 1.87949 14.3506C2.37862 14.605 3.03201 14.605 4.3388 14.605Z" stroke="#DBDBDB" stroke-width="1.20988" stroke-linecap="round" stroke-linejoin="round"/>
</svg>
