<svg width="512" height="512" viewBox="0 0 512 512" fill="none" xmlns="http://www.w3.org/2000/svg">
<g clip-path="url(#clip0_108_3922)">
<path d="M256 512C397.385 512 512 397.385 512 256C512 114.615 397.385 0 256 0C114.615 0 0 114.615 0 256C0 397.385 114.615 512 256 512Z" fill="#0D1E30"/>
<g filter="url(#filter0_d_108_3922)">
<path d="M251.6 96.9599C259.264 93.0079 268.624 102.144 264.56 109.68C262.176 115.824 253.2 117.456 248.624 112.768C243.776 108.288 245.36 99.3919 251.6 96.9439V96.9599ZM169.12 105.696C173.776 103.808 179.68 108 179.2 113.008C179.68 118.416 172.96 122.416 168.208 119.84C161.92 117.44 162.64 107.392 169.12 105.696ZM338.048 119.984C330.768 119.12 329.616 107.856 336.608 105.584C342.048 102.992 347.04 107.872 347.84 112.944C346.688 117.264 343.008 121.232 338.048 119.984ZM187.888 140.224C195.68 135.376 206.784 142.592 205.584 151.504C205.184 160.48 193.056 165.696 186.208 159.616C179.584 154.848 180.592 143.904 187.888 140.224ZM306.768 145.376C310.24 136.576 324.32 136.288 328.272 144.864C332.192 151.536 327.376 159.808 320.416 162.08C311.184 163.776 302.432 153.952 306.768 145.376ZM241.664 161.584C241.584 154 248.592 148.368 255.904 147.84C260.768 148.8 266.048 150.832 268.128 155.648C272.016 162.304 268.56 171.44 261.568 174.496C258.368 176.256 254.56 175.6 251.072 175.392C245.744 172.832 241.248 167.76 241.664 161.584ZM119.008 172.624C126.128 168.304 135.728 176.144 133.024 183.76C131.552 190.336 122.56 193.008 117.424 188.816C111.936 184.88 112.8 175.424 119.024 172.608L119.008 172.624ZM382.4 172.592C388.432 167.984 398.4 173.28 397.664 180.768C398.08 187.6 389.456 192.768 383.472 189.248C376.88 186.32 376.192 176.336 382.4 172.608V172.592ZM276.16 186.208C286.112 182.688 297.952 186.896 303.616 195.648C311.104 206.32 307.136 222.576 295.504 228.704C283.472 235.952 265.888 229.824 261.424 216.576C256.384 204.736 263.744 189.92 276.144 186.208H276.16ZM217.712 187.376C228.752 182.256 243.616 186.544 248.944 197.648C255.216 208.464 250.368 223.52 239.152 229.104C227.92 235.392 212.064 230.624 206.64 219.024C200.544 207.792 205.952 192.544 217.712 187.376ZM159.2 207.04C160.048 200.048 166.752 195.488 173.52 195.008C177.05 195.381 180.349 196.94 182.877 199.431C185.406 201.921 187.014 205.196 187.44 208.72C186.96 215.92 181.312 222.928 173.568 222.896C165.04 223.616 157.568 215.264 159.2 207.04ZM332.032 196.544C340.784 191.536 352.928 198.816 352.544 208.704C353.136 219.184 339.696 226.56 330.992 220.416C321.936 215.296 322.64 200.896 332.032 196.544ZM193.952 233.456C204.16 230.688 215.872 235.424 220.88 244.672C226.368 253.984 224.128 266.912 215.6 273.76C204.64 283.776 184.464 279.744 178.64 266.08C171.936 253.552 180.08 236.752 193.936 233.44L193.952 233.456ZM304.784 233.408C314.72 230.608 326.4 234.368 331.744 243.28C338.816 253.472 335.44 268.688 324.928 275.248C313.888 282.88 296.832 278.88 290.752 266.944C283.392 254.608 290.8 237.168 304.784 233.408ZM128.144 245.024C136.976 241.744 146.768 251.328 143.184 259.952C141.008 267.792 129.76 270.704 123.952 264.912C117.152 259.472 119.664 247.392 128.144 245.024ZM367.648 257.536C367.482 254.014 368.714 250.569 371.075 247.95C373.436 245.331 376.736 243.75 380.256 243.552C386.304 244.512 392.192 249.312 391.712 255.792C392.272 264.352 381.792 270.16 374.368 266.144C370.896 264.4 369.12 260.896 367.648 257.536ZM84.7042 249.28C90.0162 246.992 96.5922 251.52 95.3762 257.328C95.0882 263.904 85.2162 266.448 81.6002 260.944C78.4002 257.12 80.3202 251.248 84.7042 249.264V249.28ZM419.888 249.136C423.632 246.528 429.648 248.4 431.12 252.704C433.632 257.408 429.024 263.84 423.648 263.056C416.096 263.728 413.664 252.416 419.888 249.136ZM222.816 280.704C236.8 277.136 251.84 288.608 251.936 302.784C252.832 317.104 238.016 329.792 223.712 326.496C212.64 324.736 203.952 314.24 204.32 303.248C204.288 292.72 212.352 282.928 222.816 280.704ZM278.208 280.688C292.4 276.784 307.888 288.464 307.664 302.96C308.416 317.008 294.064 329.28 280.048 326.48C266.848 324.816 257.12 310.56 260.8 297.952C262.656 289.568 269.792 282.752 278.208 280.672V280.688ZM171.392 289.408C181.216 287.76 190.432 298.528 186.448 307.712C183.536 317.504 169.072 320.144 162.672 312.16C155.184 304.48 160.784 290.464 171.392 289.408ZM333.856 289.84C342.624 286.224 353.376 293.68 352.704 303.04C353.056 313.328 339.776 320.432 331.216 314.416C321.504 309.024 323.28 293.136 333.856 289.84ZM379.264 334.64C375.84 328.352 382.064 320.016 389.184 321.184C392.704 321.12 395.184 323.856 397.44 326.16C397.904 329.888 398.688 334.336 395.536 337.2C391.264 342.528 381.584 341.008 379.264 334.64ZM118.976 322.928C125.616 318.592 135.168 325.072 133.664 332.688C132.864 339.456 124.224 343.312 118.544 339.472C112.432 336 112.656 326.096 118.976 322.928ZM250.064 337.056C258.752 333.296 269.824 340.736 268.992 350.144C269.632 360.544 255.952 367.744 247.456 361.504C238.016 356.144 239.6 340.368 250.064 337.056ZM189.36 350.992C196.752 347.168 206.672 353.776 206 361.936C206.224 368.624 199.6 374.32 192.88 373.328C187.328 373.216 183.712 368.304 181.92 363.648C182.016 358.576 184.144 352.928 189.36 351.008V350.992ZM312.336 351.12C319.952 346.48 330.768 353.136 330.048 361.84C330.24 370.96 318.016 376.784 310.928 370.8C304.08 366.112 304.912 354.848 312.336 351.12ZM333.728 403.12C330.336 398.096 334.32 392.032 339.808 390.88C344.24 391.76 348.928 395.04 347.984 400.064C347.344 406.896 337.2 408.976 333.728 403.136V403.12ZM163.952 398.752C165.296 394.752 168.56 390.8 173.344 391.84C180.304 392.32 182.368 402.656 176.272 405.84C170.8 409.472 164.432 404.496 163.952 398.752ZM245.872 403.344C247.2 397.424 254.96 394.56 260.08 397.696C263.472 399.136 264.464 402.848 265.328 406.016C264.872 407.661 264.445 409.315 264.048 410.976C261.952 413.408 259.248 415.856 255.76 415.776C249.28 416.528 243.424 409.312 245.856 403.344H245.872Z" fill="black"/>
</g>
<path d="M251.6 96.9599C259.264 93.0079 268.624 102.144 264.56 109.68C262.176 115.824 253.2 117.456 248.624 112.768C243.776 108.288 245.36 99.3919 251.6 96.9439V96.9599ZM169.12 105.696C173.776 103.808 179.68 108 179.2 113.008C179.68 118.416 172.96 122.416 168.208 119.84C161.92 117.44 162.64 107.392 169.12 105.696ZM338.048 119.984C330.768 119.12 329.616 107.856 336.608 105.584C342.048 102.992 347.04 107.872 347.84 112.944C346.688 117.264 343.008 121.232 338.048 119.984ZM187.888 140.224C195.68 135.376 206.784 142.592 205.584 151.504C205.184 160.48 193.056 165.696 186.208 159.616C179.584 154.848 180.592 143.904 187.888 140.224ZM306.768 145.376C310.24 136.576 324.32 136.288 328.272 144.864C332.192 151.536 327.376 159.808 320.416 162.08C311.184 163.776 302.432 153.952 306.768 145.376ZM241.664 161.584C241.584 154 248.592 148.368 255.904 147.84C260.768 148.8 266.048 150.832 268.128 155.648C272.016 162.304 268.56 171.44 261.568 174.496C258.368 176.256 254.56 175.6 251.072 175.392C245.744 172.832 241.248 167.76 241.664 161.584ZM119.008 172.624C126.128 168.304 135.728 176.144 133.024 183.76C131.552 190.336 122.56 193.008 117.424 188.816C111.936 184.88 112.8 175.424 119.024 172.608L119.008 172.624ZM382.4 172.592C388.432 167.984 398.4 173.28 397.664 180.768C398.08 187.6 389.456 192.768 383.472 189.248C376.88 186.32 376.192 176.336 382.4 172.608V172.592ZM276.16 186.208C286.112 182.688 297.952 186.896 303.616 195.648C311.104 206.32 307.136 222.576 295.504 228.704C283.472 235.952 265.888 229.824 261.424 216.576C256.384 204.736 263.744 189.92 276.144 186.208H276.16ZM217.712 187.376C228.752 182.256 243.616 186.544 248.944 197.648C255.216 208.464 250.368 223.52 239.152 229.104C227.92 235.392 212.064 230.624 206.64 219.024C200.544 207.792 205.952 192.544 217.712 187.376ZM159.2 207.04C160.048 200.048 166.752 195.488 173.52 195.008C177.05 195.381 180.349 196.94 182.877 199.431C185.406 201.921 187.014 205.196 187.44 208.72C186.96 215.92 181.312 222.928 173.568 222.896C165.04 223.616 157.568 215.264 159.2 207.04ZM332.032 196.544C340.784 191.536 352.928 198.816 352.544 208.704C353.136 219.184 339.696 226.56 330.992 220.416C321.936 215.296 322.64 200.896 332.032 196.544ZM193.952 233.456C204.16 230.688 215.872 235.424 220.88 244.672C226.368 253.984 224.128 266.912 215.6 273.76C204.64 283.776 184.464 279.744 178.64 266.08C171.936 253.552 180.08 236.752 193.936 233.44L193.952 233.456ZM304.784 233.408C314.72 230.608 326.4 234.368 331.744 243.28C338.816 253.472 335.44 268.688 324.928 275.248C313.888 282.88 296.832 278.88 290.752 266.944C283.392 254.608 290.8 237.168 304.784 233.408ZM128.144 245.024C136.976 241.744 146.768 251.328 143.184 259.952C141.008 267.792 129.76 270.704 123.952 264.912C117.152 259.472 119.664 247.392 128.144 245.024ZM367.648 257.536C367.482 254.014 368.714 250.569 371.075 247.95C373.436 245.331 376.736 243.75 380.256 243.552C386.304 244.512 392.192 249.312 391.712 255.792C392.272 264.352 381.792 270.16 374.368 266.144C370.896 264.4 369.12 260.896 367.648 257.536ZM84.7042 249.28C90.0162 246.992 96.5922 251.52 95.3762 257.328C95.0882 263.904 85.2162 266.448 81.6002 260.944C78.4002 257.12 80.3202 251.248 84.7042 249.264V249.28ZM419.888 249.136C423.632 246.528 429.648 248.4 431.12 252.704C433.632 257.408 429.024 263.84 423.648 263.056C416.096 263.728 413.664 252.416 419.888 249.136ZM222.816 280.704C236.8 277.136 251.84 288.608 251.936 302.784C252.832 317.104 238.016 329.792 223.712 326.496C212.64 324.736 203.952 314.24 204.32 303.248C204.288 292.72 212.352 282.928 222.816 280.704ZM278.208 280.688C292.4 276.784 307.888 288.464 307.664 302.96C308.416 317.008 294.064 329.28 280.048 326.48C266.848 324.816 257.12 310.56 260.8 297.952C262.656 289.568 269.792 282.752 278.208 280.672V280.688ZM171.392 289.408C181.216 287.76 190.432 298.528 186.448 307.712C183.536 317.504 169.072 320.144 162.672 312.16C155.184 304.48 160.784 290.464 171.392 289.408ZM333.856 289.84C342.624 286.224 353.376 293.68 352.704 303.04C353.056 313.328 339.776 320.432 331.216 314.416C321.504 309.024 323.28 293.136 333.856 289.84ZM379.264 334.64C375.84 328.352 382.064 320.016 389.184 321.184C392.704 321.12 395.184 323.856 397.44 326.16C397.904 329.888 398.688 334.336 395.536 337.2C391.264 342.528 381.584 341.008 379.264 334.64ZM118.976 322.928C125.616 318.592 135.168 325.072 133.664 332.688C132.864 339.456 124.224 343.312 118.544 339.472C112.432 336 112.656 326.096 118.976 322.928ZM250.064 337.056C258.752 333.296 269.824 340.736 268.992 350.144C269.632 360.544 255.952 367.744 247.456 361.504C238.016 356.144 239.6 340.368 250.064 337.056ZM189.36 350.992C196.752 347.168 206.672 353.776 206 361.936C206.224 368.624 199.6 374.32 192.88 373.328C187.328 373.216 183.712 368.304 181.92 363.648C182.016 358.576 184.144 352.928 189.36 351.008V350.992ZM312.336 351.12C319.952 346.48 330.768 353.136 330.048 361.84C330.24 370.96 318.016 376.784 310.928 370.8C304.08 366.112 304.912 354.848 312.336 351.12ZM333.728 403.12C330.336 398.096 334.32 392.032 339.808 390.88C344.24 391.76 348.928 395.04 347.984 400.064C347.344 406.896 337.2 408.976 333.728 403.136V403.12ZM163.952 398.752C165.296 394.752 168.56 390.8 173.344 391.84C180.304 392.32 182.368 402.656 176.272 405.84C170.8 409.472 164.432 404.496 163.952 398.752ZM245.872 403.344C247.2 397.424 254.96 394.56 260.08 397.696C263.472 399.136 264.464 402.848 265.328 406.016C264.872 407.661 264.445 409.315 264.048 410.976C261.952 413.408 259.248 415.856 255.76 415.776C249.28 416.528 243.424 409.312 245.856 403.344H245.872Z" fill="white"/>
</g>
<defs>
<filter id="filter0_d_108_3922" x="79.0073" y="95.5066" width="353.817" height="321.823" filterUnits="userSpaceOnUse" color-interpolation-filters="sRGB">
<feFlood flood-opacity="0" result="BackgroundImageFix"/>
<feColorMatrix in="SourceAlpha" type="matrix" values="0 0 0 0 0 0 0 0 0 0 0 0 0 0 0 0 0 0 127 0" result="hardAlpha"/>
<feOffset dy="0.5"/>
<feGaussianBlur stdDeviation="0.5"/>
<feColorMatrix type="matrix" values="0 0 0 0 0 0 0 0 0 0 0 0 0 0 0 0 0 0 0.204257 0"/>
<feBlend mode="normal" in2="BackgroundImageFix" result="effect1_dropShadow_108_3922"/>
<feBlend mode="normal" in="SourceGraphic" in2="effect1_dropShadow_108_3922" result="shape"/>
</filter>
<clipPath id="clip0_108_3922">
<rect width="512" height="512" fill="white"/>
</clipPath>
</defs>
</svg>
