<svg width="512" height="512" viewBox="0 0 512 512" fill="none" xmlns="http://www.w3.org/2000/svg">
<g clip-path="url(#clip0_108_7362)">
<path d="M256 512C397.385 512 512 397.385 512 256C512 114.615 397.385 0 256 0C114.615 0 0 114.615 0 256C0 397.385 114.615 512 256 512Z" fill="white"/>
<g clip-path="url(#clip1_108_7362)">
<path d="M396.525 171.305H351.232C345.998 171.305 340.977 169.071 337.452 165.134L319.079 144.492C316.301 141.406 312.456 139.598 308.29 139.598C304.124 139.598 300.278 141.406 297.501 144.492L281.691 162.261C276.563 168.007 269.086 171.411 261.395 171.411H13.4596C6.40935 191.308 1.81598 212.482 0 234.507H234.048C238.214 234.507 242.06 232.805 244.944 229.825L266.736 207.162C269.406 204.289 273.252 202.693 277.097 202.693H277.952C282.118 202.693 285.964 204.502 288.741 207.588L307.115 228.229C310.64 232.166 315.66 234.401 320.895 234.401H511.893C510.077 212.482 505.484 191.202 498.434 171.199L396.525 171.305Z" fill="black"/>
<path d="M141.646 367.295C145.812 367.295 149.658 365.593 152.542 362.614L174.334 339.95C177.111 337.077 180.85 335.481 184.803 335.481H185.657C189.823 335.481 193.776 337.29 196.446 340.269L214.82 360.911C218.345 364.848 223.366 367.082 228.6 367.082H487.537C497.258 347.079 504.309 325.692 508.581 303.242H260.006C254.771 303.242 249.751 301.008 246.226 297.071L227.852 276.642C225.075 273.556 221.229 271.854 217.063 271.854C212.897 271.854 208.944 273.663 206.274 276.642L190.464 294.411C185.337 300.263 177.859 303.561 170.061 303.561H3.5249C7.7978 326.012 14.8481 347.398 24.5689 367.402L141.646 367.295Z" fill="black"/>
<path d="M325.274 102.251C329.44 102.251 333.286 100.549 336.17 97.5694L357.962 74.9061C360.632 72.0332 364.478 70.4372 368.43 70.4372H369.285C373.451 70.4372 377.297 72.246 380.074 75.3317L398.448 96.0798C401.973 100.017 406.993 102.251 412.228 102.251H461.473C414.578 40.113 340.016 0 256.053 0C172.091 0 97.4219 40.113 50.5269 102.251H325.274Z" fill="black"/>
<path d="M226.464 430.603H159.166C153.931 430.603 148.911 428.369 145.385 424.432L127.012 403.79C124.235 400.705 120.389 399.002 116.223 399.002C112.057 399.002 108.104 400.811 105.434 403.79L89.6241 421.559C84.4967 427.411 77.0191 430.71 69.2211 430.71H68.1528C115.048 480.718 181.812 512.106 256.053 512.106C330.295 512.106 396.952 480.718 443.954 430.71L226.464 430.603Z" fill="black"/>
</g>
</g>
<defs>
<clipPath id="clip0_108_7362">
<rect width="512" height="512" fill="white"/>
</clipPath>
<clipPath id="clip1_108_7362">
<rect width="512" height="512" fill="white"/>
</clipPath>
</defs>
</svg>
