<svg width="512" height="512" viewBox="0 0 512 512" fill="none" xmlns="http://www.w3.org/2000/svg">
<g clip-path="url(#clip0_108_4063)">
<path d="M256 512C397.385 512 512 397.385 512 256C512 114.615 397.385 0 256 0C114.615 0 0 114.615 0 256C0 397.385 114.615 512 256 512Z" fill="#2E3148"/>
<path d="M256.32 88.48C235.6 88.48 218.8 163.632 218.8 256.32C218.8 349.008 235.6 424.16 256.32 424.16C277.024 424.16 293.824 349.008 293.824 256.32C293.824 163.632 277.024 88.48 256.32 88.48ZM258.912 414.672C256.544 417.84 254.16 415.472 254.16 415.472C244.624 404.4 239.856 383.872 239.856 383.872C223.168 330.16 227.136 214.848 227.136 214.848C234.976 123.312 249.248 101.68 254.096 96.88C254.592 96.3877 255.247 96.0871 255.944 96.0315C256.641 95.9758 257.335 96.1687 257.904 96.576C264.944 101.584 270.864 122.448 270.864 122.448C288.304 187.216 286.72 248.016 286.72 248.016C288.304 300.944 277.984 360.176 277.984 360.176C270.032 405.2 258.912 414.672 258.912 414.672Z" fill="white"/>
<path d="M401.888 172.8C391.568 154.816 318.048 177.648 237.616 223.776C157.184 269.904 100.448 321.856 110.736 339.84C121.056 357.824 194.592 334.992 275.024 288.864C355.456 242.736 412.192 190.768 401.888 172.8ZM120.24 337.36C116.304 336.88 117.2 333.616 117.2 333.616C122.032 319.856 137.456 305.488 137.456 305.488C175.744 264.288 277.76 210.352 277.76 210.352C361.056 171.6 386.928 173.232 393.488 175.024C394.165 175.21 394.755 175.631 395.15 176.211C395.546 176.791 395.722 177.494 395.648 178.192C394.848 186.784 379.648 202.304 379.648 202.304C332.192 249.68 278.656 278.592 278.656 278.592C233.536 306.304 177.008 326.8 177.008 326.8C134 342.288 120.24 337.36 120.24 337.36Z" fill="white"/>
<path d="M401.52 340.432C411.92 322.512 355.328 270.304 275.152 223.824C194.992 177.36 121.488 154.256 111.104 172.208C100.704 190.176 157.312 242.336 237.504 288.816C317.712 335.28 391.136 358.384 401.52 340.432ZM118 179.136C116.448 175.488 119.696 174.608 119.696 174.608C134.048 171.888 154.208 178.08 154.208 178.08C209.04 190.56 306.816 251.808 306.816 251.808C382.096 304.48 393.648 327.696 395.376 334.272C395.551 334.948 395.481 335.663 395.18 336.293C394.878 336.922 394.364 337.425 393.728 337.712C385.888 341.312 364.848 335.952 364.848 335.952C300.048 318.576 248.224 286.752 248.224 286.752C201.664 261.632 155.616 222.992 155.616 222.992C120.624 193.52 118.016 179.152 118.016 179.152L117.984 179.136H118Z" fill="white"/>
<path d="M255.92 275.664C266.824 275.664 275.664 266.824 275.664 255.92C275.664 245.016 266.824 236.176 255.92 236.176C245.015 236.176 236.176 245.016 236.176 255.92C236.176 266.824 245.015 275.664 255.92 275.664Z" fill="white"/>
<path d="M336.88 196.096C345.716 196.096 352.88 188.933 352.88 180.096C352.88 171.259 345.716 164.096 336.88 164.096C328.043 164.096 320.88 171.259 320.88 180.096C320.88 188.933 328.043 196.096 336.88 196.096Z" fill="white"/>
<path d="M148.896 236.384C157.733 236.384 164.896 229.221 164.896 220.384C164.896 211.547 157.733 204.384 148.896 204.384C140.059 204.384 132.896 211.547 132.896 220.384C132.896 229.221 140.059 236.384 148.896 236.384Z" fill="white"/>
<path d="M232.624 381.696C241.461 381.696 248.624 374.533 248.624 365.696C248.624 356.859 241.461 349.696 232.624 349.696C223.787 349.696 216.624 356.859 216.624 365.696C216.624 374.533 223.787 381.696 232.624 381.696Z" fill="white"/>
</g>
<defs>
<clipPath id="clip0_108_4063">
<rect width="512" height="512" fill="white"/>
</clipPath>
</defs>
</svg>
