<svg width="512" height="512" viewBox="0 0 512 512" fill="none" xmlns="http://www.w3.org/2000/svg">
<g clip-path="url(#clip0_108_4059)">
<path d="M256 512C397.385 512 512 397.385 512 256C512 114.615 397.385 0 256 0C114.615 0 0 114.615 0 256C0 397.385 114.615 512 256 512Z" fill="#E84142"/>
<path fill-rule="evenodd" clip-rule="evenodd" d="M184.288 364H135.84C125.664 364 120.64 364 117.568 362.032C115.95 360.976 114.603 359.554 113.635 357.88C112.668 356.207 112.108 354.33 112 352.4C111.808 348.784 114.32 344.352 119.36 335.52L238.912 124.432C244 115.472 246.592 110.992 249.824 109.328C251.554 108.448 253.468 107.99 255.408 107.99C257.349 107.99 259.263 108.448 260.992 109.328C264.24 110.992 266.816 115.472 271.904 124.432L296.48 167.408L296.608 167.632C302.096 177.232 304.88 182.128 306.096 187.248C307.456 192.852 307.456 198.7 306.096 204.304C304.88 209.472 302.112 214.384 296.544 224.144L233.728 335.344L233.568 335.616C228.032 345.312 225.248 350.224 221.344 353.936C217.143 357.959 212.041 360.921 206.464 362.576C201.36 364 195.68 364 184.288 364ZM306.576 364H375.952C386.192 364 391.344 364 394.416 361.984C396.047 360.922 397.403 359.487 398.371 357.799C399.339 356.11 399.892 354.216 399.984 352.272C400.16 348.768 397.712 344.528 392.896 336.192L392.384 335.328L357.632 275.776L357.232 275.104C352.352 266.832 349.872 262.656 346.72 261.04C345.004 260.164 343.104 259.707 341.176 259.707C339.249 259.707 337.349 260.164 335.632 261.04C332.432 262.704 329.872 267.072 324.784 275.84L290.144 335.392L290.032 335.6C284.96 344.368 282.416 348.736 282.608 352.336C282.715 354.275 283.274 356.162 284.241 357.845C285.208 359.529 286.556 360.963 288.176 362.032C291.184 364 296.336 364 306.576 364Z" fill="white"/>
</g>
<defs>
<clipPath id="clip0_108_4059">
<rect width="512" height="512" fill="white"/>
</clipPath>
</defs>
</svg>
