<svg width="512" height="512" viewBox="0 0 512 512" fill="none" xmlns="http://www.w3.org/2000/svg">
<g clip-path="url(#clip0_108_4055)">
<path d="M256 512C397.385 512 512 397.385 512 256C512 114.615 397.385 0 256 0C114.615 0 0 114.615 0 256C0 397.385 114.615 512 256 512Z" fill="#8DC351"/>
<path d="M339.312 168.544C326.896 136.992 295.76 134.144 259.504 141.184L246.592 96.176L219.2 104.032L231.776 147.872C224.576 149.92 217.248 152.192 209.968 154.432L197.328 110.304L169.952 118.144L182.832 163.152C176.944 164.976 171.152 166.768 165.472 168.4L165.424 168.24L127.632 179.072L136.032 208.352C136.032 208.352 156.16 202.144 155.92 202.624C167.024 199.44 172.48 204.848 175.12 210.112L189.84 261.376C190.592 261.168 191.6 260.912 192.784 260.736L189.888 261.568L210.48 333.408C210.992 337.04 210.544 343.2 202.8 345.44C203.232 345.648 182.864 351.136 182.864 351.136L186.816 385.424L222.464 375.184C229.104 373.312 235.664 371.552 242.08 369.744L255.152 415.264L282.512 407.424L269.6 362.384C276.939 360.437 284.257 358.41 291.552 356.304L304.384 401.152L331.792 393.296L318.768 347.856C364.064 332 392.976 311.152 384.576 266.736C377.824 230.992 356.992 220.144 329.04 221.36C342.608 208.72 348.448 191.616 339.312 168.544ZM328.912 276.864C338.672 310.896 279.312 323.728 260.752 329.072L243.456 268.752C262.016 263.424 318.72 241.392 328.896 276.88L328.912 276.864ZM291.76 195.424C300.624 226.384 251.008 236.704 235.536 241.136L219.856 186.432C235.312 182 282.496 163.152 291.76 195.44V195.424Z" fill="white"/>
</g>
<defs>
<clipPath id="clip0_108_4055">
<rect width="512" height="512" fill="white"/>
</clipPath>
</defs>
</svg>
