<svg width="512" height="512" viewBox="0 0 512 512" fill="none" xmlns="http://www.w3.org/2000/svg">
<g clip-path="url(#clip0_108_4039)">
<path d="M256 512C397.385 512 512 397.385 512 256C512 114.615 397.385 0 256 0C114.615 0 0 114.615 0 256C0 397.385 114.615 512 256 512Z" fill="#F3BA2F"/>
<path d="M193.856 230.464L256 168.32L318.176 230.496L354.336 194.336L256 96L157.696 194.304L193.856 230.464ZM96 256L132.16 219.84L168.32 256L132.16 292.16L96 256ZM193.856 281.536L256 343.68L318.176 281.504L354.336 317.648L256 416L157.696 317.696L157.648 317.648L193.856 281.536ZM343.68 256L379.84 219.84L416 256L379.84 292.16L343.68 256ZM292.672 255.968H292.704V256L256 292.704L219.344 256.064L219.28 256L219.344 255.952L225.76 249.52L228.88 246.4L256 219.296L292.688 255.984L292.672 255.968Z" fill="white"/>
</g>
<defs>
<clipPath id="clip0_108_4039">
<rect width="512" height="512" fill="white"/>
</clipPath>
</defs>
</svg>
