<svg width="512" height="512" viewBox="0 0 512 512" fill="none" xmlns="http://www.w3.org/2000/svg">
<g clip-path="url(#clip0_108_4031)">
<path d="M256 512C397.385 512 512 397.385 512 256C512 114.615 397.385 0 256 0C114.615 0 0 114.615 0 256C0 397.385 114.615 512 256 512Z" fill="#F7931A"/>
<path d="M371.024 224.32C376.048 190.784 350.496 172.752 315.584 160.72L326.912 115.28L299.264 108.4L288.224 152.64C280.96 150.816 273.504 149.12 266.064 147.424L277.184 102.896L249.536 96L238.208 141.424C232.192 140.048 226.272 138.704 220.544 137.264L220.576 137.12L182.432 127.6L175.072 157.136C175.072 157.136 195.6 161.84 195.168 162.128C206.368 164.928 208.384 172.336 208.048 178.224L195.152 229.984C195.92 230.176 196.912 230.464 198.032 230.896L195.104 230.176L177.024 302.688C175.648 306.08 172.176 311.184 164.336 309.248C164.624 309.648 144.24 304.24 144.24 304.24L130.512 335.888L166.512 344.864C173.2 346.544 179.76 348.304 186.208 349.952L174.768 395.904L202.4 402.784L213.728 357.344C221.28 359.376 228.608 361.264 235.776 363.056L224.48 408.304L252.128 415.184L263.568 369.328C310.736 378.256 346.192 374.656 361.12 332C373.152 297.664 360.528 277.84 335.712 264.928C353.792 260.768 367.392 248.88 371.024 224.32ZM307.824 312.928C299.296 347.28 241.456 328.704 222.704 324.048L237.904 263.168C256.656 267.856 316.768 277.12 307.824 312.928ZM316.384 223.824C308.592 255.072 260.464 239.184 244.864 235.296L258.624 180.096C274.224 183.984 324.512 191.232 316.384 223.824Z" fill="white"/>
</g>
<defs>
<clipPath id="clip0_108_4031">
<rect width="512" height="512" fill="white"/>
</clipPath>
</defs>
</svg>
