<svg width="512" height="512" viewBox="0 0 512 512" fill="none" xmlns="http://www.w3.org/2000/svg">
<g clip-path="url(#clip0_108_4027)">
<path d="M256 512C397.385 512 512 397.385 512 256C512 114.615 397.385 0 256 0C114.615 0 0 114.615 0 256C0 397.385 114.615 512 256 512Z" fill="#C3A634"/>
<path fill-rule="evenodd" clip-rule="evenodd" d="M211.968 233.76H280.992V270.336H211.968V347.424H255.504C272.736 347.424 286.832 345.104 297.808 340.432C308.784 335.776 317.392 329.328 323.648 321.072C330.047 312.486 334.402 302.555 336.384 292.032C338.696 280.162 339.821 268.092 339.744 256C339.821 243.908 338.696 231.838 336.384 219.968C334.405 209.445 330.048 199.512 323.648 190.928C317.392 182.672 308.768 176.224 297.808 171.568C286.832 166.896 272.736 164.576 255.504 164.576H211.968V233.776V233.76ZM167.712 270.336H144V233.776H167.712V128H272.496C291.856 128 308.608 131.36 322.768 138.032C336.928 144.736 348.48 153.872 357.456 165.472C366.416 177.056 373.088 190.624 377.456 206.16C381.824 221.696 384 238.32 384 256C384.11 272.836 381.902 289.606 377.44 305.84C373.088 321.36 366.416 334.944 357.44 346.528C348.48 358.128 336.928 367.264 322.768 373.968C308.608 380.656 291.84 384 272.496 384H167.712V270.336Z" fill="white"/>
</g>
<defs>
<clipPath id="clip0_108_4027">
<rect width="512" height="512" fill="white"/>
</clipPath>
</defs>
</svg>
