<svg width="512" height="512" viewBox="0 0 512 512" fill="none" xmlns="http://www.w3.org/2000/svg">
<g clip-path="url(#clip0_108_4043)">
<path d="M256 512C397.385 512 512 397.385 512 256C512 114.615 397.385 0 256 0C114.615 0 0 114.615 0 256C0 397.385 114.615 512 256 512Z" fill="#E6007A"/>
<path d="M260.352 106C201.04 106 152.576 154.192 152.576 213.776C152.576 225.76 154.56 237.456 158.272 248.848C159.586 252.609 162.324 255.704 165.897 257.466C169.47 259.229 173.592 259.518 177.376 258.272C181.134 256.955 184.225 254.215 185.985 250.643C187.744 247.07 188.031 242.95 186.784 239.168C183.656 230.286 182.207 220.9 182.512 211.488C183.648 171.296 216.16 138.208 256.368 136.224C266.9 135.671 277.435 137.266 287.331 140.912C297.228 144.558 306.279 150.179 313.934 157.433C321.59 164.688 327.69 173.424 331.863 183.11C336.035 192.796 338.194 203.229 338.208 213.776C338.184 233.611 330.585 252.687 316.964 267.105C303.343 281.523 284.729 290.194 264.928 291.344C264.928 291.344 249.808 292.192 242.4 293.344C238.688 293.904 235.84 294.48 233.84 294.768C232.976 295.056 232.128 294.192 232.4 293.328L234.976 280.8L248.944 216.352C249.758 212.499 249.018 208.479 246.885 205.169C244.752 201.858 241.398 199.523 237.552 198.672C233.696 197.858 229.675 198.601 226.364 200.737C223.053 202.874 220.72 206.232 219.872 210.08C219.872 210.08 186.224 366.912 185.936 368.624C185.122 372.48 185.865 376.501 188.001 379.812C190.138 383.123 193.496 385.456 197.344 386.304C201.2 387.118 205.221 386.375 208.532 384.239C211.843 382.102 214.177 378.744 215.024 374.896C215.296 373.184 219.872 352.368 219.872 352.368C221.492 344.736 225.429 337.791 231.145 332.481C236.861 327.172 244.078 323.757 251.808 322.704C257.401 322.091 263.008 321.617 268.624 321.28C295.696 319.17 320.977 306.931 339.424 287.005C357.87 267.078 368.126 240.93 368.144 213.776C368.144 154.192 319.664 106 260.352 106ZM268.048 354.08C265.727 353.579 263.329 353.544 260.993 353.977C258.658 354.41 256.432 355.301 254.443 356.6C252.455 357.9 250.745 359.58 249.411 361.545C248.077 363.51 247.146 365.721 246.672 368.048C244.672 377.744 250.672 387.44 260.64 389.44C262.964 389.943 265.365 389.979 267.703 389.547C270.041 389.114 272.27 388.221 274.26 386.92C276.25 385.619 277.962 383.936 279.296 381.968C280.63 380 281.56 377.786 282.032 375.456C284.016 365.488 278.032 356.064 268.048 354.08Z" fill="white"/>
</g>
<defs>
<clipPath id="clip0_108_4043">
<rect width="512" height="512" fill="white"/>
</clipPath>
</defs>
</svg>
