<svg width="512" height="512" viewBox="0 0 512 512" fill="none" xmlns="http://www.w3.org/2000/svg">
<g clip-path="url(#clip0_108_4047)">
<path d="M256 512C397.385 512 512 397.385 512 256C512 114.615 397.385 0 256 0C114.615 0 0 114.615 0 256C0 397.385 114.615 512 256 512Z" fill="#328332"/>
<path d="M255.824 264.848L148.288 255.616L255.808 194.784V264.848H255.824ZM255.824 336.208V447.248C218.432 389.04 177.216 324.976 144 273.12C183.2 295.2 224.128 318.272 255.824 336.208ZM255.824 175.12L144 237.52L255.824 64V175.12Z" fill="white"/>
<path d="M363.36 255.616L255.824 264.848V194.784L363.36 255.616ZM255.824 336.224C287.504 318.304 328.416 295.2 367.632 273.12C334.416 324.992 293.2 389.056 255.824 447.232V336.224ZM255.824 175.12V64L367.632 237.52L255.824 175.12Z" fill="white" fill-opacity="0.601"/>
<path opacity="0.2" fill-rule="evenodd" clip-rule="evenodd" d="M255.824 264.848L363.344 255.616L255.824 316.016V264.848Z" fill="white"/>
<path opacity="0.603" fill-rule="evenodd" clip-rule="evenodd" d="M255.808 264.848L148.272 255.616L255.808 316.016V264.848Z" fill="white"/>
</g>
<defs>
<clipPath id="clip0_108_4047">
<rect width="512" height="512" fill="white"/>
</clipPath>
</defs>
</svg>
