<svg width="512" height="512" viewBox="0 0 512 512" fill="none" xmlns="http://www.w3.org/2000/svg">
<g clip-path="url(#clip0_108_4035)">
<path d="M256 512C397.385 512 512 397.385 512 256C512 114.615 397.385 0 256 0C114.615 0 0 114.615 0 256C0 397.385 114.615 512 256 512Z" fill="#42C1CA"/>
<path d="M254.912 206.528C260.864 181.52 268.032 159.04 275.648 144.368C278.448 137.36 289.808 120.576 302.272 109.488C323.024 91.008 346.304 86.32 370.544 101.536C382.912 109.296 387.872 117.28 385.696 124.8C384.096 130.4 377.968 134.88 374.688 134.416C369.888 134.896 365.056 133.936 360.448 130.544C356.568 127.556 353.576 123.568 351.792 119.008C348.4 111.008 343.952 108.288 338.496 108.928C334.544 109.376 329.952 111.904 328.496 113.6L324.736 117.76C321.813 120.872 319.218 124.277 316.992 127.92C309.376 140.608 302.352 163.856 292.608 212.032L357.184 221.488L353.632 247.36L288.096 237.76L285.296 254.784L284.576 259.04C284.192 261.248 283.776 263.648 283.296 266.208L349.472 275.904L345.68 301.744L277.952 291.824C270.128 325.072 259.824 360.704 252.544 374.768C249.728 381.792 238.384 398.544 225.92 409.648C205.168 428.112 181.888 432.816 157.648 417.6C145.28 409.84 140.32 401.84 142.496 394.32C144.096 388.72 150.224 384.256 153.504 384.72C158.304 384.24 163.136 385.2 167.744 388.576C171.296 391.2 174.24 395.008 176.4 400.128C179.792 408.112 184.24 410.848 189.696 410.208C193.648 409.744 198.24 407.216 199.696 405.52C214.208 389.36 225.712 358.224 240.256 286.32L175.68 276.848L179.232 250.976L244.768 260.576L247.584 243.568C248.206 239.747 248.873 235.933 249.584 232.128L183.664 222.48L187.44 196.64L254.912 206.528Z" fill="white"/>
</g>
<defs>
<clipPath id="clip0_108_4035">
<rect width="512" height="512" fill="white"/>
</clipPath>
</defs>
</svg>
