<svg width="512" height="512" viewBox="0 0 512 512" fill="none" xmlns="http://www.w3.org/2000/svg">
<g clip-path="url(#clip0_108_4007)">
<path d="M256 512C397.385 512 512 397.385 512 256C512 114.615 397.385 0 256 0C114.615 0 0 114.615 0 256C0 397.385 114.615 512 256 512Z" fill="#292A2E"/>
<path d="M354.72 168C333.28 168 309.872 178.672 285.152 199.712C274.671 208.758 264.818 218.509 255.664 228.896L255.696 228.928L255.728 228.896C255.728 228.896 267.76 241.6 280.976 255.184C289.976 244.649 299.747 234.798 310.208 225.712C332.192 207.008 346.56 203.088 354.736 203.088C385.568 203.088 410.656 226.832 410.656 256C410.656 285.024 385.552 308.736 354.688 308.928C353.28 308.928 351.488 308.768 349.248 308.288C358.24 312.048 367.904 314.768 377.12 314.768C433.648 314.768 444.688 278.976 445.44 276.432C447.12 269.872 448 263.04 448 256.016C448 207.472 406.16 168 354.72 168ZM157.28 344C178.72 344 202.128 333.328 226.848 312.288C237.329 303.242 247.182 293.491 256.336 283.104L256.304 283.072C256.294 283.083 256.283 283.094 256.272 283.104C256.272 283.104 244.24 270.4 231.024 256.816C222.024 267.351 212.253 277.202 201.792 286.288C179.808 304.992 165.44 308.912 157.264 308.912C126.432 308.912 101.344 285.168 101.344 256C101.344 226.976 126.448 203.264 157.312 203.072C158.72 203.072 160.512 203.232 162.752 203.712C153.76 199.952 144.096 197.232 134.88 197.232C78.352 197.232 67.312 233.024 66.56 235.568C64.88 242.128 64 248.96 64 255.984C64 304.528 105.84 344 157.28 344Z" fill="white"/>
<path d="M377.008 313.872C348.064 313.184 317.984 291.04 311.856 285.536C296 271.296 259.408 232.784 256.544 229.76C229.728 200.608 193.376 168 157.264 168H157.184C113.28 168.208 76.3842 197.072 66.5762 235.584C67.3282 233.04 81.7442 196.56 134.848 197.824C163.792 198.528 194.016 220.976 200.144 226.464C216 240.704 252.608 279.232 255.456 282.256C282.272 311.392 318.624 344 354.736 344H354.816C398.72 343.792 435.616 314.928 445.424 276.416C444.688 278.96 430.112 315.136 377.008 313.872Z" fill="white"/>
</g>
<defs>
<clipPath id="clip0_108_4007">
<rect width="512" height="512" fill="white"/>
</clipPath>
</defs>
</svg>
