<svg width="512" height="512" viewBox="0 0 512 512" fill="none" xmlns="http://www.w3.org/2000/svg">
<g clip-path="url(#clip0_108_3995)">
<path d="M256 512C397.385 512 512 397.385 512 256C512 114.615 397.385 0 256 0C114.615 0 0 114.615 0 256C0 397.385 114.615 512 256 512Z" fill="#11021E"/>
<path d="M174.864 229.856H175.024L177.472 230.784L180.08 231.696L182.528 232.624L185.136 233.696L187.584 234.624L190.192 235.376L192.656 236.304L195.104 237.376L200.016 239.216L202.624 239.984L205.072 241.056L207.68 241.984L210.144 242.896L212.752 243.824L215.2 244.736L217.808 245.664L220.256 246.576L222.864 247.504L225.328 248.576L227.936 249.344V213.6H171.328L168.88 214.832L163.056 217.904L157.072 220.96L151.248 224.032L145.408 227.104L139.424 230.176L133.456 233.232L127.616 236.304L121.792 239.376L115.808 242.432L109.984 245.504L104.608 248.416L104 336.32L109.984 340.464L115.808 344.608L121.792 348.592L133.456 356.88L139.424 361.008L142.032 363.008L145.408 358.864L151.248 351.184L151.696 350.432L151.248 349.968L145.408 345.824L139.424 341.536L133.456 337.392L127.616 333.248L121.792 329.12L120.112 328.032L120.56 257.024L121.792 256.416L127.616 253.504L133.456 250.432L139.424 247.664L145.408 244.608L151.248 241.68L157.072 238.768L163.056 235.856L168.88 232.944L174.864 229.856Z" fill="white"/>
<path d="M276.4 397.648L271.328 399.648L265.808 401.792L260.288 404.096L254.768 406.24L252.32 407.312L249.408 405.792L243.872 403.024L238.512 400.256L232.992 397.504L227.472 394.736L221.952 391.984L216.432 389.216L210.896 386.304L205.376 383.696L200.016 380.784L194.496 378.016L189.12 375.424L183.6 372.496L182.992 372.192V300.576H167.04V382.016L189.12 393.056L194.496 395.808L200.016 398.736L205.376 401.344L210.896 404.256L216.432 407.008L221.952 409.616L227.472 412.528L238.512 418.048L243.872 420.816L251.552 424.656L254.768 423.264L260.288 421.12L265.808 418.976L271.328 416.672L276.848 414.368L282.384 412.384L276.848 398.576L276.4 397.648ZM374.4 297.808L374.72 331.696L373.184 332.784L363.824 339.376L354.624 346.128L345.264 352.72L335.904 359.472L326.4 365.904L317.2 372.656L307.84 379.408L302.32 383.392L298.48 380.32L289.28 373.28L279.92 366.064L270.56 359.008L261.36 351.808L259.68 350.72V314.24L261.36 312.704L270.56 302.88L279.92 293.216L289.28 283.408L298.48 273.744L307.536 264.24H196.032L205.376 274.048L214.592 283.712L224.096 293.376L233.456 303.184L242.656 312.848L243.872 314.24V358.4L252.016 364.688L261.36 371.744L270.56 378.96L279.92 386L289.28 393.216L298.48 400.272L302 403.04L307.84 398.752L317.2 392.144L326.4 385.408L335.904 378.8L345.264 372.208L354.624 365.616L363.824 358.864L373.184 352.272L382.528 345.68L390.208 340L391.728 298.432L382.528 298.128L374.4 297.808ZM119.184 219.424H120.256L120.416 174.336L126.544 170.496L133.904 166.064L141.424 161.616L148.624 156.848L156.144 152.4L163.504 147.808L170.864 143.36L178.224 138.912L185.584 134.304L193.104 129.856L193.264 129.696L200.32 133.856L207.84 137.984L222.56 146.576L229.92 150.72L237.44 154.864L244.64 159.152L251.856 163.152L252.176 162.528L259.536 149.344L252.176 145.04L244.656 140.896L237.44 136.768L229.92 132.608L222.56 128.176L215.2 124.032L207.84 119.888L200.32 115.744L193.12 111.6L192.8 111.44L185.6 115.76L178.24 120.352L170.88 124.8L163.52 129.392L156.16 133.84L148.64 138.288L141.424 142.896L133.904 147.344L126.544 151.952L119.184 156.544L111.824 160.992L104.624 165.44L104.304 219.28H111.824L119.184 219.424Z" fill="white"/>
<path d="M407.52 178.016L403.84 175.104L399.872 171.888L396.032 168.816L392.192 165.744L388.352 162.544L384.512 159.616L380.544 156.544L376.704 153.328L372.704 150.256L369.952 147.952L368.88 149.184L365.04 153.936L361.056 158.848L360.144 160.224L361.056 161.296L365.056 164.528L368.896 167.584L372.72 170.96L376.704 174.192L380.544 177.392L384.528 180.784L388.368 184L390.208 185.536L390.368 258.08L388.368 259.312L384.528 261.92L380.528 264.224L376.704 266.832L372.704 269.12L368.88 271.728L365.04 274.032L361.056 276.64L357.216 278.944L353.376 281.552L349.552 283.856L345.712 286.464L341.728 288.752L337.888 291.36L334.064 293.664L330.224 296.272L326.24 298.576L330.24 304.704L334.08 310.992L334.832 312.064L337.904 310.08L341.744 307.616L345.728 305.328L349.568 302.864L353.392 300.416L357.232 297.968L361.072 295.664L365.04 293.2L368.88 290.912L372.72 288.448L376.704 286L380.544 283.536L384.528 281.248L388.368 278.784L392.208 276.496L396.032 274.032L399.872 271.584L403.856 269.12L407.696 266.832L407.52 178.016ZM281.152 221.28V252.72L282.384 252.24L287.44 250.112L292.656 248.112L297.712 245.968L302.928 243.968L308.144 241.824L313.2 239.68L318.416 237.68L323.632 235.536L328.704 233.536L333.904 231.392L338.976 229.408V134.304L333.152 130.784L327.168 127.408L321.328 123.888L315.36 120.352L309.376 116.976L303.392 113.456L297.568 109.92L291.728 106.56L285.744 103.024L279.776 99.504L273.792 96.112L267.952 92.592L262.128 89.072L256.144 85.68L253.088 84L250.176 85.376L244.192 88.752L238.352 91.824L232.528 95.04L226.544 98.416L220.56 101.488L214.592 104.704L220.56 108.224L226.544 111.6L230.224 113.76L232.528 112.688L238.352 109.456L244.192 106.4L250.176 103.328L252.624 102.096L256.144 104.096L262.128 107.616L273.792 114.368L285.744 121.424L291.728 124.784L303.392 131.856L309.376 135.216L321.328 142.288L323.168 143.2V213.296H281.296" fill="white"/>
<path d="M281.152 252.72L338.976 229.408L280.992 213.296M227.936 252.72V213.904L175.008 229.712L227.936 252.56" fill="white"/>
</g>
<defs>
<clipPath id="clip0_108_3995">
<rect width="512" height="512" fill="white"/>
</clipPath>
</defs>
</svg>
