<svg width="512" height="512" viewBox="0 0 512 512" fill="none" xmlns="http://www.w3.org/2000/svg">
<g clip-path="url(#clip0_108_3983)">
<path d="M256 512C397.385 512 512 397.385 512 256C512 114.615 397.385 0 256 0C114.615 0 0 114.615 0 256C0 397.385 114.615 512 256 512Z" fill="#2A5ADA"/>
<path d="M256 96L227.216 112.88L148.8 159.12L120 176V336L148.784 352.88L227.936 399.12L256.72 416L285.504 399.12L363.216 352.88L392 336V176L363.216 159.12L284.784 112.88L256 96ZM177.568 302.24V209.76L256 163.52L334.432 209.76V302.24L256 348.48L177.568 302.24Z" fill="white"/>
</g>
<defs>
<clipPath id="clip0_108_3983">
<rect width="512" height="512" fill="white"/>
</clipPath>
</defs>
</svg>
