<svg width="512" height="512" viewBox="0 0 512 512" fill="none" xmlns="http://www.w3.org/2000/svg">
<g clip-path="url(#clip0_108_3975)">
<path d="M256 512C397.385 512 512 397.385 512 256C512 114.615 397.385 0 256 0C114.615 0 0 114.615 0 256C0 397.385 114.615 512 256 512Z" fill="#6F41D8"/>
<path d="M337.472 203.088C331.568 199.648 323.904 199.648 317.408 203.088L271.344 229.552L240.064 246.8L194 273.248C188.096 276.704 180.432 276.704 173.936 273.248L137.328 252.544C131.424 249.104 127.296 242.784 127.296 235.872V195.04C127.296 188.144 130.832 181.824 137.328 178.368L173.328 158.24C179.248 154.784 186.928 154.784 193.424 158.24L229.424 178.368C235.344 181.824 239.472 188.144 239.472 195.04V221.504L270.752 203.664V177.216C270.787 173.781 269.867 170.404 268.096 167.46C266.325 164.516 263.771 162.122 260.72 160.544L194 122.592C188.096 119.136 180.432 119.136 173.936 122.592L106.032 160.544C102.981 162.122 100.427 164.516 98.6561 167.46C96.8849 170.404 95.9654 173.781 96 177.216V253.696C96 260.608 99.536 266.928 106.032 270.384L173.936 308.336C179.84 311.776 187.52 311.776 194 308.336L240.064 282.448L271.344 264.624L317.408 238.752C323.312 235.296 330.976 235.296 337.472 238.752L373.488 258.88C379.408 262.32 383.52 268.64 383.52 275.552V316.384C383.52 323.28 380 329.6 373.488 333.056L337.488 353.76C331.568 357.216 323.888 357.216 317.408 353.76L281.392 333.632C275.472 330.176 271.344 323.856 271.344 316.96V290.496L240.064 308.336V334.784C240.064 341.68 243.6 348.016 250.096 351.456L318 389.408C323.904 392.864 331.568 392.864 338.064 389.408L405.968 351.456C411.872 348.016 416 341.696 416 334.784V258.304C416.035 254.869 415.115 251.492 413.344 248.548C411.573 245.604 409.019 243.21 405.968 241.632L337.488 203.088H337.472Z" fill="white"/>
</g>
<defs>
<clipPath id="clip0_108_3975">
<rect width="512" height="512" fill="white"/>
</clipPath>
</defs>
</svg>
