<svg width="512" height="512" viewBox="0 0 512 512" fill="none" xmlns="http://www.w3.org/2000/svg">
<g clip-path="url(#clip0_108_3943)">
<path d="M256 512C397.385 512 512 397.385 512 256C512 114.615 397.385 0 256 0C114.615 0 0 114.615 0 256C0 397.385 114.615 512 256 512Z" fill="#23292F"/>
<path d="M335.026 138.442L280.089 219.972C276.29 225.524 283.595 232.246 288.855 227.57L342.916 180.522C344.378 179.353 346.423 180.23 346.423 182.276V329.263C346.423 331.309 343.793 332.186 342.624 330.724L178.98 134.936C173.72 128.507 166.122 125 157.648 125H151.803C136.608 125 124.042 137.566 124.042 153.053V359.947C124.042 375.434 136.608 388 152.095 388C161.739 388 170.798 383.032 176.058 374.558L230.995 293.028C234.794 287.476 227.489 280.754 222.229 285.43L168.168 332.186C166.706 333.354 164.661 332.478 164.661 330.432V183.737C164.661 181.691 167.291 180.814 168.46 182.276L332.104 378.064C337.364 384.493 345.254 388 353.436 388H359.281C374.769 388 387.334 375.434 387.334 359.947V153.053C387.334 137.566 374.769 125 359.281 125C349.345 125 340.286 129.968 335.026 138.442Z" fill="white"/>
</g>
<defs>
<clipPath id="clip0_108_3943">
<rect width="512" height="512" fill="white"/>
</clipPath>
</defs>
</svg>
