<svg width="512" height="512" viewBox="0 0 512 512" fill="none" xmlns="http://www.w3.org/2000/svg">
<g clip-path="url(#clip0_108_3963)">
<path d="M256 512C397.385 512 512 397.385 512 256C512 114.615 397.385 0 256 0C114.615 0 0 114.615 0 256C0 397.385 114.615 512 256 512Z" fill="#23292F"/>
<g clip-path="url(#clip1_108_3963)">
<path d="M256.001 237.887C304.018 237.887 342.944 198.961 342.944 150.943C342.944 102.926 304.018 64 256.001 64C207.983 64 169.057 102.926 169.057 150.943C169.057 198.961 207.983 237.887 256.001 237.887Z" fill="#88BDF3"/>
<path d="M256.001 448C304.018 448 342.944 409.074 342.944 361.057C342.944 313.039 304.018 274.113 256.001 274.113C207.983 274.113 169.057 313.039 169.057 361.057C169.057 409.074 207.983 448 256.001 448Z" fill="#3075EE"/>
<path d="M361.056 342.943C409.074 342.943 448 304.017 448 256C448 207.982 409.074 169.056 361.056 169.056C313.039 169.056 274.113 207.982 274.113 256C274.113 304.017 313.039 342.943 361.056 342.943Z" fill="#5795F1"/>
<path d="M150.943 342.943C198.961 342.943 237.887 304.017 237.887 256C237.887 207.982 198.961 169.056 150.943 169.056C102.926 169.056 64 207.982 64 256C64 304.017 102.926 342.943 150.943 342.943Z" fill="#205FEC"/>
<path d="M235.532 235.532C220.035 231.764 205.873 223.806 194.596 212.528C183.319 201.251 175.36 187.089 171.592 171.592C187.062 175.418 201.193 183.395 212.461 194.663C223.729 205.931 231.706 220.062 235.532 235.532Z" fill="#134BEF"/>
<path d="M171.411 340.588C175.179 325.091 183.137 310.929 194.415 299.652C205.692 288.375 219.854 280.417 235.351 276.649C231.525 292.118 223.548 306.249 212.28 317.518C201.012 328.786 186.881 336.763 171.411 340.588Z" fill="#0932E8"/>
<path d="M276.467 276.468C291.964 280.236 306.126 288.194 317.403 299.472C328.681 310.749 336.639 324.911 340.407 340.408C324.937 336.582 310.806 328.605 299.538 317.337C288.27 306.069 280.293 291.938 276.467 276.468Z" fill="#164BEA"/>
<path d="M340.589 171.412C336.82 186.909 328.862 201.07 317.585 212.348C306.308 223.625 292.146 231.583 276.649 235.351C280.474 219.882 288.452 205.751 299.72 194.482C310.988 183.214 325.119 175.237 340.589 171.412Z" fill="#3170F1"/>
</g>
</g>
<defs>
<clipPath id="clip0_108_3963">
<rect width="512" height="512" fill="white"/>
</clipPath>
<clipPath id="clip1_108_3963">
<rect width="384" height="384" fill="white" transform="translate(64 64)"/>
</clipPath>
</defs>
</svg>
