<svg width="512" height="512" viewBox="0 0 512 512" fill="none" xmlns="http://www.w3.org/2000/svg">
<g clip-path="url(#clip0_108_3951)">
<path d="M256 512C397.385 512 512 397.385 512 256C512 114.615 397.385 0 256 0C114.615 0 0 114.615 0 256C0 397.385 114.615 512 256 512Z" fill="#F00500"/>
<path d="M362.861 275.685C362.677 276.667 359.794 279.611 356.91 281.759C348.444 287.955 333.29 293.722 317.892 296.483C309.119 298.078 300.345 298.323 297.707 297.035C295.99 296.176 295.744 295.501 296.358 293.292C297.646 288.691 301.818 283.661 308.321 278.937C311.634 276.544 325.07 268.384 331.327 264.949C341.634 259.305 349.978 255.93 355.622 255.133C357.401 254.887 359.548 254.826 360.223 255.133C361.327 255.562 362.554 258.814 363.045 262.74C363.291 264.826 363.168 274.029 362.861 275.685Z" fill="black"/>
<path d="M218.32 295.992C217.952 296.728 216.111 297.525 214.025 297.832C211.94 298.139 205.559 297.955 201.939 297.525C188.933 295.808 175.13 291.82 165.068 286.912C159.424 284.151 155.375 281.39 152.369 278.384L150.651 276.605L150.467 274.274C150.16 270.225 150.221 263.844 150.712 261.574C151.019 259.672 151.694 257.832 152.614 256.176C153.105 255.562 153.105 255.562 155.313 255.562C158.013 255.562 160.283 255.991 163.964 257.157C171.51 259.488 182.737 265.133 196.418 273.354C207.706 280.102 211.94 283.415 215.191 287.955C217.4 290.777 218.872 294.765 218.32 295.992Z" fill="black"/>
<path d="M305.192 381.391C305.192 381.575 304.456 384.52 303.536 388.017C302.615 391.514 301.879 394.336 301.879 394.458C301.204 394.52 300.591 394.581 299.916 394.52H297.953L295.253 400.9C293.781 404.397 292.431 407.649 292.247 408.139L291.879 408.998L290.591 406.912L289.303 404.827V387.833L288.812 387.955C287.769 388.201 280.345 389.182 277.094 389.489C263.658 390.839 250.161 390.532 236.787 388.63C234.64 388.323 232.799 388.078 232.738 388.139C232.676 388.201 232.738 392.127 232.861 396.974L233.045 405.685L232.002 407.281C231.449 408.14 230.897 408.876 230.897 408.937C230.713 409.121 230.1 408.14 228.689 405.317C227.155 402.373 226.051 399.244 225.253 395.992L224.824 394.213L222.922 394.336L221.02 394.52L220.529 392.25C220.284 391.023 219.977 389.121 219.854 388.078L219.67 386.115L218.075 384.704C217.155 383.906 216.235 383.109 216.051 382.986C215.744 382.741 215.621 382.311 215.621 381.943V381.207L223.29 381.268L230.959 381.33L231.204 382.127L231.449 382.925L234.088 383.047C235.56 383.109 240.222 383.231 244.394 383.354L252.063 383.538L254.026 380.471L256.051 377.403H258.628L258.566 371.023L258.505 364.642L255.131 363.17C244.272 358.385 237.891 352.924 235.499 346.299C235.008 344.949 235.008 344.458 234.885 338.323C234.824 332.25 234.824 331.697 235.253 330.348C236.112 327.28 238.505 324.888 241.572 324.09C242.615 323.783 245.376 323.783 259.855 323.783L276.91 323.845L278.812 324.765C281.082 325.869 282.125 326.667 283.413 328.384C284.885 330.348 285.315 331.881 285.315 335.624C285.315 340.961 284.947 345.562 284.395 347.403C283.597 349.918 282.37 352.311 280.836 354.458C277.769 358.385 272.186 362.311 267.094 364.09L265.621 364.642L265.683 371.084L265.744 377.526L267.094 377.649L268.444 377.771L270.284 380.532L272.063 383.293H280.284C284.824 383.293 288.812 383.354 289.18 383.415C289.793 383.538 289.916 383.477 290.53 382.434L291.266 381.33H298.321C303.597 381.084 305.192 381.207 305.192 381.391Z" fill="black"/>
<path d="M272.799 398.998C271.633 399.673 270.835 399.98 270.651 399.857C270.467 399.796 269.608 399.06 268.688 398.385L267.032 397.035L265.314 398.876C261.572 402.925 261.449 403.109 260.345 403.17C258.627 403.354 258.259 403.048 256.173 399.919C255.068 398.324 254.21 396.974 254.21 396.974C254.21 396.974 253.412 396.851 252.492 396.79L250.774 396.606L249.976 398.262L249.179 399.919L247.768 399.489C246.663 399.121 245.559 398.692 244.516 398.201L242.676 397.281V393.784L258.995 393.845L275.314 393.906L275.375 395.563C275.437 397.526 275.498 397.465 272.799 398.998Z" fill="black"/>
<path d="M426.174 324.151C426.113 323.906 426.113 323.476 426.052 322.802C411.328 321.207 369.303 320.225 330.284 352.434C330.284 352.434 317.707 294.765 258.811 294.765C199.915 294.765 178.075 352.434 178.075 352.434C145.068 316.912 100.896 319.489 84.9454 321.82C84.9454 322.188 84.884 322.618 84.884 322.986C84.3932 331.881 84.6386 336.115 86.111 341.697C90.7123 359.182 104.884 378.446 127.093 397.342C163.473 428.262 212.799 450.594 250.161 453.17C289.118 455.809 346.603 433.048 384.886 399.796C390.898 394.458 396.542 388.814 401.818 382.802C405.622 378.385 411.266 370.777 410.837 370.777C410.714 370.777 410.837 370.655 411.082 370.532C411.266 370.409 411.45 370.225 411.328 370.102C411.266 370.041 411.389 369.857 411.573 369.796C411.757 369.734 411.88 369.612 411.818 369.489C411.757 369.366 411.818 369.244 412.064 369.182C412.248 369.121 412.309 368.937 412.248 368.814C412.186 368.691 412.248 368.569 412.371 368.569C412.493 368.569 412.616 368.385 412.616 368.262C412.616 368.139 412.739 367.955 412.861 367.955C412.984 367.955 413.107 367.833 413.107 367.71C413.291 367.219 413.598 366.728 413.904 366.299C414.825 364.888 418.505 358.323 418.996 357.219C422.493 349.305 424.702 342.25 425.745 335.194C426.113 331.82 426.42 325.624 426.174 324.151ZM272.799 398.998C271.634 399.673 270.836 399.98 270.652 399.857C270.468 399.796 269.609 399.06 268.689 398.385L267.032 397.035L265.314 398.876C261.572 402.925 261.449 403.109 260.345 403.17C258.627 403.354 258.259 403.047 256.173 399.919C255.069 398.324 254.21 396.974 254.21 396.974C254.21 396.974 253.413 396.851 252.492 396.79L250.775 396.606L249.977 398.262L249.179 399.919L247.768 399.489C246.664 399.121 245.56 398.692 244.517 398.201L242.676 397.281V393.784L258.995 393.845L275.315 393.906L275.376 395.563C275.437 397.526 275.499 397.465 272.799 398.998ZM303.474 387.955C302.554 391.452 301.818 394.274 301.818 394.397C301.143 394.458 300.529 394.52 299.855 394.458H297.891L295.253 400.9C293.781 404.397 292.431 407.649 292.247 408.14L291.879 408.998L290.591 406.913L289.302 404.827V387.833L288.812 387.955C287.769 388.201 280.345 389.182 277.094 389.489C263.658 390.839 250.161 390.532 236.787 388.63C234.639 388.323 232.799 388.078 232.738 388.139C232.676 388.201 232.738 392.127 232.86 396.974L233.044 405.686L232.001 407.281C231.449 408.14 230.897 408.876 230.897 408.937C230.713 409.121 230.1 408.14 228.689 405.317C227.155 402.373 226.05 399.244 225.253 395.992L224.823 394.213L222.922 394.336L221.02 394.52L220.529 392.25C220.284 391.023 219.977 389.121 219.854 388.078L219.67 386.115L218.075 384.704C217.155 383.906 216.234 383.109 216.05 382.986C215.744 382.741 215.621 382.311 215.621 381.943V381.207L223.29 381.268L230.958 381.33L231.204 382.127L231.449 382.925L234.087 383.047C235.56 383.109 240.222 383.231 244.394 383.354L252.063 383.538L254.026 380.471L256.051 377.403H258.627L258.566 371.023L258.505 364.642L255.13 363.17C244.271 358.385 237.891 352.924 235.498 346.299C235.008 344.949 235.008 344.458 234.885 338.323C234.824 332.25 234.823 331.697 235.253 330.348C236.112 327.28 238.505 324.888 241.572 324.09C242.615 323.783 245.376 323.783 259.854 323.783L276.91 323.845L278.811 324.765C281.081 325.869 282.124 326.667 283.413 328.384C284.885 330.348 285.315 331.881 285.315 335.624C285.315 340.961 284.947 345.562 284.394 347.403C283.597 349.918 282.37 352.311 280.836 354.458C277.769 358.385 272.186 362.311 267.094 364.09L265.621 364.642L265.683 371.084L265.744 377.526L267.094 377.649L268.443 377.771L270.284 380.532L272.063 383.293H280.284C284.824 383.293 288.812 383.354 289.18 383.415C289.793 383.538 289.916 383.477 290.529 382.434L291.266 381.33H298.321C303.781 381.33 305.376 381.391 305.376 381.575C305.192 381.514 304.394 384.52 303.474 387.955Z" fill="white"/>
<path d="M425.683 317.894C425.56 315.133 425.315 311.268 425.131 309.366C422.493 281.513 415.376 258.752 401.879 234.642C401.327 233.721 400.836 232.801 400.53 232.065C400.407 231.881 400.345 231.697 400.284 231.574C402.186 225.869 409.977 202.003 416.174 174.703C424.579 137.647 429.916 94.3342 413.597 81.328C413.597 81.328 385.376 79.2421 347.585 116.297C337.339 126.543 327.952 137.647 319.609 149.488L316.971 148.629C301.756 143.66 285.989 140.592 270.099 139.549C265.314 139.181 247.461 139.181 241.633 139.549C224.025 140.715 210.529 143.353 195.191 148.69C194.577 148.936 194.025 149.12 193.473 149.304C184.823 137.525 175.191 126.482 164.577 116.359C125.252 79.1194 95.988 81.2666 95.988 81.2666C78.6873 94.7023 84.5769 139.979 93.534 178.261C99.4236 203.599 106.663 225.869 109.362 233.905C109.178 234.335 108.933 234.826 108.687 235.255C94.3929 264.212 86.6628 292.127 84.8223 321.82C100.835 319.489 144.945 316.851 178.013 352.434C178.013 352.434 199.854 294.765 258.75 294.765C317.646 294.765 330.222 352.434 330.222 352.434C369.241 320.225 411.266 321.268 425.99 322.802C425.928 321.575 425.806 319.734 425.683 317.894ZM120.957 210.777C120.957 210.777 98.0125 153.414 103.902 120.653C104.884 115.132 106.724 110.285 109.608 106.604C109.608 106.604 135.62 109.181 177.583 155.807C177.583 155.807 169.608 159.672 158.933 167.893C158.933 167.893 158.872 167.954 158.81 167.954C147.215 176.85 132.369 190.96 120.957 210.777ZM218.32 295.992C217.952 296.728 216.111 297.525 214.025 297.832C211.94 298.139 205.559 297.955 201.939 297.525C188.933 295.808 175.13 291.82 165.068 286.912C159.424 284.151 155.375 281.39 152.369 278.384L150.651 276.605L150.467 274.274C150.16 270.225 150.221 263.844 150.712 261.574C151.019 259.673 151.694 257.832 152.614 256.176C153.105 255.562 153.105 255.562 155.313 255.562C158.013 255.562 160.283 255.992 163.964 257.157C171.51 259.488 182.737 265.133 196.418 273.354C207.706 280.102 211.94 283.415 215.191 287.955C217.4 290.777 218.872 294.765 218.32 295.992ZM362.861 275.685C362.677 276.666 359.793 279.611 356.91 281.758C348.443 287.955 333.29 293.722 317.891 296.482C309.118 298.078 300.345 298.323 297.707 297.035C295.989 296.176 295.744 295.501 296.357 293.292C297.646 288.691 301.817 283.66 308.32 278.936C311.633 276.544 325.069 268.384 331.327 264.949C341.634 259.304 349.977 255.93 355.621 255.133C357.4 254.887 359.548 254.826 360.223 255.133C361.327 255.562 362.554 258.814 363.045 262.74C363.29 264.826 363.167 274.028 362.861 275.685ZM352.677 167.893L352.554 167.832C342.247 159.611 334.517 155.746 334.517 155.746C375.069 109.12 400.161 106.543 400.161 106.543C402.922 110.285 404.701 115.07 405.683 120.592C411.389 153.353 389.241 210.777 389.241 210.777C379.977 194.273 367.523 179.672 352.677 167.893Z" fill="#FFA409"/>
<path d="M405.744 120.592C400.959 119.978 378.321 119.856 352.676 167.893L352.554 167.831C342.247 159.611 334.517 155.745 334.517 155.745C375.069 109.119 400.161 106.543 400.161 106.543C402.983 110.285 404.762 115.07 405.744 120.592Z" fill="#FF9300"/>
<path d="M389.303 210.777C379.978 194.212 367.585 179.672 352.677 167.893C378.321 119.856 400.898 119.979 405.745 120.592C411.45 153.414 389.303 210.777 389.303 210.777Z" fill="#FF8300"/>
<path d="M406.664 120.776C406.358 120.714 406.051 120.653 405.744 120.592L406.664 120.776Z" fill="#FF8300"/>
<path d="M177.584 155.745C177.584 155.745 169.609 159.611 158.934 167.831C158.934 167.831 158.872 167.893 158.811 167.893C132.246 119.794 108.872 119.978 103.841 120.592C104.823 115.07 106.663 110.224 109.547 106.543C109.608 106.543 135.621 109.119 177.584 155.745Z" fill="#FF9300"/>
<path d="M158.872 167.893C147.215 176.85 132.369 190.899 120.958 210.777C120.958 210.777 98.0127 153.414 103.902 120.592C108.872 119.979 132.307 119.856 158.872 167.893Z" fill="#FF8300"/>
<path d="M103.903 120.592C103.596 120.653 103.228 120.714 102.921 120.776L103.903 120.592Z" fill="#FF8300"/>
<path d="M327.216 242.617C327.216 242.617 307.584 243.844 310.038 228.507C312.492 213.169 327.83 211.329 332.124 211.942C336.419 212.556 353.597 218.691 350.529 231.574C347.462 244.458 343.167 242.004 340.713 242.617C338.259 243.231 327.216 242.617 327.216 242.617Z" fill="white"/>
<path d="M182.43 242.617C182.43 242.617 162.798 243.844 165.252 228.507C167.706 213.169 183.044 211.329 187.338 211.942C191.633 212.556 208.811 218.691 205.743 231.574C202.676 244.458 198.381 242.004 195.927 242.617C193.473 243.231 182.43 242.617 182.43 242.617Z" fill="white"/>
</g>
<defs>
<clipPath id="clip0_108_3951">
<rect width="512" height="512" fill="white"/>
</clipPath>
</defs>
</svg>
