<svg width="512" height="512" viewBox="0 0 512 512" fill="none" xmlns="http://www.w3.org/2000/svg">
<g clip-path="url(#clip0_108_4003)">
<path d="M256 512C397.385 512 512 397.385 512 256C512 114.615 397.385 0 256 0C114.615 0 0 114.615 0 256C0 397.385 114.615 512 256 512Z" fill="#66F9A1"/>
<path d="M158.8 314.992C160.569 313.247 162.954 312.269 165.44 312.272H395.296C396.222 312.259 397.132 312.525 397.906 313.034C398.681 313.543 399.285 314.272 399.642 315.128C399.998 315.983 400.09 316.926 399.906 317.834C399.721 318.743 399.269 319.575 398.608 320.224L353.2 365.264C351.433 367.015 349.047 367.998 346.56 368H116.704C115.777 368.008 114.869 367.739 114.096 367.228C113.323 366.717 112.72 365.987 112.364 365.131C112.009 364.276 111.917 363.333 112.099 362.425C112.282 361.516 112.732 360.683 113.392 360.032L158.8 314.992ZM158.8 146.72C160.569 144.975 162.954 143.997 165.44 144H395.296C399.472 144 401.568 149.024 398.608 151.968L353.2 197.008C351.431 198.753 349.045 199.731 346.56 199.728H116.704C115.78 199.733 114.876 199.463 114.107 198.952C113.337 198.442 112.737 197.715 112.382 196.862C112.027 196.01 111.933 195.071 112.113 194.166C112.293 193.26 112.738 192.428 113.392 191.776L158.8 146.72ZM353.2 230.32C351.431 228.575 349.045 227.597 346.56 227.6H116.704C115.777 227.592 114.869 227.861 114.096 228.372C113.323 228.883 112.72 229.613 112.364 230.469C112.009 231.324 111.917 232.267 112.099 233.175C112.282 234.084 112.732 234.917 113.392 235.568L158.8 280.608C160.56 282.352 162.96 283.328 165.44 283.328H395.296C396.222 283.336 397.13 283.067 397.903 282.556C398.676 282.045 399.279 281.315 399.635 280.459C399.99 279.604 400.083 278.661 399.9 277.753C399.717 276.844 399.267 276.011 398.608 275.36L353.2 230.32Z" fill="white"/>
</g>
<defs>
<clipPath id="clip0_108_4003">
<rect width="512" height="512" fill="white"/>
</clipPath>
</defs>
</svg>
