<svg width="512" height="512" viewBox="0 0 512 512" fill="none" xmlns="http://www.w3.org/2000/svg">
<g clip-path="url(#clip0_108_3947)">
<g clip-path="url(#clip1_108_3947)">
<path d="M256 512C397.714 512 512 397.714 512 256C512 114.286 397.714 0 256 0C114.286 0 0 114.286 0 256C0 397.714 114.286 512 256 512Z" fill="#0098EA"/>
<path d="M343.771 142.629H168.228C136.228 142.629 116.114 177.372 131.657 205.714L239.543 393.143C246.857 405.029 264.228 405.029 271.543 393.143L379.428 205.714C395.885 177.372 375.771 142.629 343.771 142.629ZM240.457 336.457L216.685 290.743L160 189.257C156.343 182.857 160.914 174.629 169.143 174.629H240.457V336.457ZM352 189.257L295.314 290.743L271.543 336.457V174.629H342.857C351.085 174.629 355.657 182.857 352 189.257Z" fill="white"/>
</g>
</g>
<defs>
<clipPath id="clip0_108_3947">
<rect width="512" height="512" fill="white"/>
</clipPath>
<clipPath id="clip1_108_3947">
<rect width="512" height="512" fill="white"/>
</clipPath>
</defs>
</svg>
