<svg width="512" height="512" viewBox="0 0 512 512" fill="none" xmlns="http://www.w3.org/2000/svg">
<g clip-path="url(#clip0_108_3979)">
<path d="M256 512C397.385 512 512 397.385 512 256C512 114.615 397.385 0 256 0C114.615 0 0 114.615 0 256C0 397.385 114.615 512 256 512Z" fill="#EF0027"/>
<path d="M350.912 158.608L120 116.112L241.52 421.904L410.848 215.6L350.912 158.608ZM347.2 177.328L382.528 210.912L285.92 228.4L347.2 177.328ZM264.928 224.896L163.104 140.448L329.536 171.072L264.928 224.896ZM257.68 239.84L241.072 377.12L151.552 151.792L257.68 239.84ZM273.04 247.12L380.032 227.76L257.312 377.248L273.04 247.12Z" fill="white"/>
</g>
<defs>
<clipPath id="clip0_108_3979">
<rect width="512" height="512" fill="white"/>
</clipPath>
</defs>
</svg>
