<svg width="512" height="512" viewBox="0 0 512 512" fill="none" xmlns="http://www.w3.org/2000/svg">
<g clip-path="url(#clip0_108_3987)">
<path d="M256 512C397.385 512 512 397.385 512 256C512 114.615 397.385 0 256 0C114.615 0 0 114.615 0 256C0 397.385 114.615 512 256 512Z" fill="#FF007A"/>
<path d="M196.176 92.272C191.616 91.568 191.424 91.472 193.568 91.152C197.68 90.512 207.408 91.392 214.112 92.976C229.744 96.704 243.968 106.224 259.168 123.136L263.2 127.616L268.96 126.704C293.28 122.784 318.032 125.904 338.72 135.456C344.416 138.08 353.392 143.312 354.512 144.672C354.88 145.088 355.536 147.856 355.968 150.8C357.504 160.992 356.736 168.8 353.632 174.64C351.936 177.808 351.84 178.8 352.976 181.52C353.515 182.643 354.359 183.593 355.411 184.261C356.464 184.928 357.682 185.287 358.928 185.296C364.08 185.296 369.616 176.976 372.176 165.408L373.2 160.816L375.216 163.104C386.288 175.648 394.976 192.752 396.464 204.912L396.864 208.096L394.992 205.216C391.792 200.256 388.592 196.864 384.464 194.128C377.04 189.216 369.184 187.552 348.384 186.448C329.6 185.456 318.96 183.856 308.432 180.416C290.496 174.576 281.456 166.784 260.144 138.832C250.688 126.416 244.832 119.552 239.024 114.032C225.792 101.456 212.8 94.864 196.176 92.272Z" fill="white"/>
<path d="M358.752 120C359.232 111.68 360.352 106.192 362.624 101.184C363.52 99.2 364.368 97.568 364.496 97.568C364.354 98.6911 364.058 99.7894 363.616 100.832C361.968 105.696 361.696 112.352 362.832 120.08C364.272 129.904 365.104 131.312 375.472 141.92C380.352 146.896 386.016 153.168 388.064 155.872L391.792 160.768L388.064 157.264C383.504 152.992 373.008 144.624 370.688 143.44C369.136 142.64 368.896 142.656 367.936 143.6C367.056 144.496 366.864 145.808 366.752 152.064C366.56 161.792 365.232 168.064 362.016 174.304C360.288 177.664 360.016 176.96 361.584 173.136C362.752 170.288 362.864 169.04 362.864 159.616C362.864 140.672 360.608 136.128 347.408 128.32C343.436 126.015 339.357 123.901 335.184 121.984C333.123 121.157 331.123 120.184 329.2 119.072C329.568 118.704 342.432 122.448 347.6 124.448C355.312 127.408 356.576 127.792 357.52 127.424C358.144 127.184 358.448 125.36 358.752 120ZM205.04 152.4C195.776 139.648 190.048 120.08 191.28 105.456L191.664 100.928L193.776 101.312C197.744 102.032 204.576 104.576 207.776 106.528C216.544 111.856 220.352 118.88 224.208 136.896C225.344 142.176 226.832 148.144 227.52 150.176C228.608 153.424 232.768 161.024 236.16 165.968C238.592 169.52 236.96 171.2 231.584 170.72C223.36 169.968 212.224 162.288 205.04 152.4ZM347.52 247.36C304.208 229.92 288.96 214.784 288.96 189.248C288.96 185.488 289.088 182.416 289.232 182.416C289.392 182.416 291.072 183.648 292.96 185.168C301.744 192.208 311.584 195.216 338.8 199.184C354.816 201.536 363.84 203.424 372.16 206.176C398.592 214.944 414.944 232.736 418.848 256.96C419.968 264 419.312 277.2 417.472 284.16C416.032 289.664 411.6 299.568 410.432 299.952C410.112 300.048 409.792 298.816 409.696 297.104C409.248 288.016 404.656 279.152 396.928 272.512C388.144 264.976 376.368 258.96 347.52 247.36ZM317.12 254.592C316.609 251.501 315.909 248.445 315.024 245.44L313.904 242.144L315.968 244.448C318.8 247.648 321.056 251.712 322.944 257.152C324.4 261.296 324.56 262.528 324.544 269.264C324.544 275.888 324.368 277.264 323.024 281.008C321.156 286.498 318.027 291.473 313.888 295.536C305.968 303.6 295.808 308.048 281.12 309.904C278.56 310.224 271.136 310.768 264.592 311.104C248.112 311.968 237.28 313.728 227.536 317.152C226.658 317.546 225.714 317.774 224.752 317.824C224.368 317.424 230.992 313.472 236.48 310.832C244.208 307.104 251.888 305.072 269.12 302.208C277.632 300.784 286.432 299.072 288.656 298.384C309.744 291.92 320.592 275.248 317.12 254.592Z" fill="white"/>
<path d="M336.96 289.856C331.2 277.488 329.888 265.536 333.04 254.4C333.376 253.216 333.92 252.24 334.24 252.24C335.323 252.632 336.342 253.182 337.264 253.872C339.92 255.664 345.232 258.672 359.392 266.384C377.072 276.032 387.152 283.504 394.016 292.016C400.016 299.488 403.728 308 405.52 318.368C406.528 324.24 405.936 338.368 404.432 344.288C399.68 362.944 388.624 377.6 372.88 386.144C371.394 387.004 369.855 387.768 368.272 388.432C368.048 388.432 368.88 386.304 370.144 383.68C375.424 372.608 376.048 361.824 372.032 349.824C369.584 342.48 364.576 333.504 354.48 318.368C342.736 300.768 339.856 296.064 336.96 289.856ZM174.288 356.592C190.368 343.024 210.352 333.392 228.576 330.432C236.416 329.152 249.504 329.664 256.768 331.52C268.416 334.496 278.848 341.184 284.272 349.136C289.552 356.912 291.84 363.696 294.192 378.768C295.152 384.72 296.16 390.688 296.464 392.048C298.224 399.856 301.696 406.112 305.984 409.248C312.784 414.224 324.512 414.528 336.032 410.048C337.236 409.496 338.504 409.098 339.808 408.864C340.224 409.28 334.432 413.168 330.336 415.216C325.503 417.802 320.089 419.113 314.608 419.024C304.048 419.024 295.28 413.664 287.968 402.704C286.528 400.544 283.296 394.096 280.768 388.352C273.056 370.752 269.248 365.376 260.288 359.504C252.464 354.384 242.4 353.472 234.832 357.184C224.88 362.064 222.112 374.784 229.232 382.832C232.064 386.032 237.344 388.8 241.664 389.328C243.548 389.578 245.465 389.42 247.283 388.865C249.101 388.311 250.779 387.372 252.204 386.113C253.628 384.854 254.765 383.304 255.539 381.568C256.313 379.831 256.704 377.949 256.688 376.048C256.688 370.736 254.64 367.728 249.52 365.408C242.528 362.256 235.008 365.936 235.04 372.512C235.056 375.312 236.272 377.072 239.088 378.352C240.896 379.152 240.928 379.232 239.456 378.928C233.04 377.584 231.536 369.856 236.704 364.72C242.896 358.544 255.712 361.264 260.112 369.68C261.968 373.216 262.176 380.272 260.56 384.528C256.96 394.048 246.432 399.04 235.76 396.32C228.496 394.464 225.536 392.464 216.784 383.44C201.568 367.76 195.664 364.72 173.712 361.296L169.504 360.64L174.304 356.592H174.288Z" fill="white"/>
<path fill-rule="evenodd" clip-rule="evenodd" d="M99.1362 53.5999L100.672 55.472C160 128.112 190.656 165.808 192.608 168.496C195.808 172.944 194.608 176.928 189.104 180.064C186.048 181.808 179.744 183.568 176.608 183.568C173.04 183.568 169.024 181.856 166.096 179.088C164.032 177.12 155.696 164.672 136.448 134.8C127.435 120.681 118.304 106.638 109.056 92.6719C108.272 91.9359 108.288 91.952 134.944 139.648C151.68 169.6 157.344 180.176 157.344 181.6C157.344 184.48 156.544 185.984 152.992 189.952C147.072 196.56 144.432 203.984 142.512 219.344C140.368 236.576 134.352 248.736 117.648 269.552C107.888 281.744 106.288 283.984 103.808 288.896C100.704 295.072 99.8562 298.544 99.5042 306.352C99.1362 314.608 99.8562 319.952 102.384 327.84C104.592 334.752 106.896 339.328 112.784 348.448C117.872 356.336 120.8 362.192 120.8 364.48C120.8 366.304 121.152 366.304 129.04 364.528C147.904 360.272 163.216 352.768 171.84 343.584C177.168 337.904 178.416 334.768 178.464 326.976C178.48 321.888 178.304 320.816 176.928 317.888C174.688 313.12 170.608 309.152 161.616 303.008C149.824 294.944 144.8 288.448 143.408 279.536C142.256 272.224 143.584 267.056 150.112 253.392C156.848 239.248 158.528 233.232 159.664 218.976C160.384 209.76 161.392 206.128 164.048 203.216C166.8 200.176 169.296 199.136 176.128 198.208C187.264 196.688 194.352 193.808 200.176 188.448C205.232 183.776 207.344 179.28 207.664 172.528L207.92 167.408L205.088 164.112C201.024 159.376 167.408 122.288 104.224 52.816L102.528 50.976L99.1362 53.616V53.5999ZM126.56 315.712C127.676 313.736 128.01 311.412 127.494 309.201C126.979 306.991 125.652 305.055 123.776 303.776C120.128 301.344 114.448 302.496 114.448 305.664C114.448 306.624 114.976 307.328 116.176 307.952C118.208 308.992 118.352 310.176 116.768 312.56C115.152 314.992 115.28 317.136 117.136 318.592C120.112 320.928 124.32 319.632 126.56 315.712ZM214.944 200.896C209.712 202.496 204.64 208.048 203.056 213.856C202.096 217.392 202.64 223.616 204.08 225.536C206.4 228.64 208.656 229.456 214.736 229.408C226.64 229.328 236.976 224.224 238.192 217.84C239.184 212.608 234.624 205.36 228.368 202.16C225.136 200.528 218.272 199.872 214.944 200.896ZM228.864 211.776C230.704 209.168 229.888 206.336 226.784 204.448C220.832 200.816 211.84 203.808 211.84 209.44C211.84 212.224 216.528 215.28 220.816 215.28C223.696 215.28 227.6 213.568 228.864 211.776Z" fill="white"/>
</g>
<defs>
<clipPath id="clip0_108_3987">
<rect width="512" height="512" fill="white"/>
</clipPath>
</defs>
</svg>
