<svg width="512" height="512" viewBox="0 0 512 512" fill="none" xmlns="http://www.w3.org/2000/svg">
<g clip-path="url(#clip0_108_3959)">
<path d="M256 512C397.385 512 512 397.385 512 256C512 114.615 397.385 0 256 0C114.615 0 0 114.615 0 256C0 397.385 114.615 512 256 512Z" fill="#15BDFF"/>
<path d="M235.808 395.744L112.64 144.736C112.191 143.811 111.984 142.788 112.038 141.761C112.092 140.735 112.405 139.739 112.948 138.866C113.492 137.993 114.247 137.273 115.145 136.772C116.042 136.27 117.052 136.005 118.08 136H160.768C163.056 136 165.2 137.28 166.208 139.296L256.16 321.392C264.16 337.712 287.376 337.712 295.392 321.392L385.056 139.44C385.573 138.444 386.354 137.61 387.314 137.029C388.273 136.447 389.374 136.141 390.496 136.144H395.808C398.96 136.144 400.96 139.44 399.536 142.16L275.056 395.76C267.04 412.08 243.84 412.08 235.808 395.76V395.744Z" fill="white"/>
</g>
<defs>
<clipPath id="clip0_108_3959">
<rect width="512" height="512" fill="white"/>
</clipPath>
</defs>
</svg>
