<svg width="512" height="512" viewBox="0 0 512 512" fill="none" xmlns="http://www.w3.org/2000/svg">
<g clip-path="url(#clip0_109_2)">
<mask id="mask0_109_2" style="mask-type:luminance" maskUnits="userSpaceOnUse" x="0" y="0" width="512" height="512">
<path d="M512 0H0V512H512V0Z" fill="white"/>
</mask>
<g mask="url(#mask0_109_2)">
<path d="M0 256C0 114.615 114.615 0 256 0C397.385 0 512 114.615 512 256C512 397.385 397.385 512 256 512C114.615 512 0 397.385 0 256Z" fill="#D69A00"/>
<path d="M194.267 197.074H320.292L301.915 147.767C301.201 145.743 299.895 143.982 298.167 142.711L194.267 197.074ZM193.92 138.551C198.381 126.555 208.201 118.857 219.026 118.857H293.549C304.375 118.857 314.194 126.555 318.665 138.551L337.033 187.858C342.546 202.651 333.641 219.428 320.292 219.428H192.292C178.944 219.428 170.048 202.651 175.552 187.858L193.929 138.551H193.92ZM93.5767 325.074H219.355L200.978 275.767C200.264 273.743 198.957 271.982 197.229 270.711L93.5767 325.074ZM93.2201 266.551C97.691 254.555 107.52 246.857 118.336 246.857H192.612C203.437 246.857 213.266 254.555 217.728 266.551L236.096 315.858C241.609 330.651 232.713 347.428 219.355 347.428H91.5836C78.235 347.428 69.339 330.651 74.8521 315.858L93.2201 266.551ZM421.357 325.074H294.729L399.232 270.72C400.868 271.872 402.185 273.609 403.008 275.776L421.367 325.074H421.357ZM319.497 246.857C308.672 246.857 298.843 254.555 294.381 266.551L276.013 315.858C270.5 330.651 279.396 347.428 292.754 347.428H421.367C434.715 347.428 443.611 330.651 438.098 315.858L419.721 266.551C415.287 254.555 405.467 246.857 394.642 246.857H319.497Z" fill="white"/>
</g>
</g>
<defs>
<clipPath id="clip0_109_2">
<rect width="512" height="512" fill="white"/>
</clipPath>
</defs>
</svg>
