<svg width="512" height="512" viewBox="0 0 512 512" fill="none" xmlns="http://www.w3.org/2000/svg">
<g clip-path="url(#clip0_108_3967)">
<path d="M256 512C397.385 512 512 397.385 512 256C512 114.615 397.385 0 256 0C114.615 0 0 114.615 0 256C0 397.385 114.615 512 256 512Z" fill="black"/>
<path d="M370.08 148.672L331.68 168.256L146.112 262.768C143.468 242.458 146.519 221.812 154.925 203.134C163.33 184.456 176.759 168.481 193.714 156.99C210.669 145.499 230.483 138.945 250.946 138.058C271.408 137.171 291.715 141.987 309.6 151.968L331.584 140.768L334.864 139.088C314.009 123.953 289.257 115.103 263.534 113.581C237.81 112.06 212.188 117.931 189.694 130.501C167.199 143.072 148.772 161.817 136.587 184.522C124.402 207.228 118.968 232.946 120.928 258.64C121.295 263.473 120.224 268.306 117.849 272.531C115.475 276.756 111.903 280.185 107.584 282.384L95.9844 288.304V315.888L130.128 298.48L141.184 292.832L152.08 287.28L347.696 187.6L369.68 176.416L415.12 153.264V125.696L370.08 148.672ZM415.136 180.864L163.216 309.12L141.232 320.32L96.0004 343.408V370.976L140.928 348.096L179.344 328.512L365.104 233.856C367.789 254.198 364.759 274.885 356.354 293.602C347.948 312.32 334.5 328.329 317.513 339.837C300.526 351.345 280.672 357.899 260.172 358.764C239.672 359.629 219.336 354.772 201.44 344.736L200.08 345.456L176.24 357.616C197.099 372.759 221.857 381.615 247.588 383.138C273.319 384.66 298.949 378.786 321.448 366.209C343.948 353.631 362.377 334.877 374.558 312.161C386.74 289.445 392.165 263.717 390.192 238.016C389.83 233.188 390.901 228.36 393.272 224.139C395.643 219.917 399.208 216.49 403.52 214.288L415.136 208.368V180.88V180.864Z" fill="white"/>
</g>
<defs>
<clipPath id="clip0_108_3967">
<rect width="512" height="512" fill="white"/>
</clipPath>
</defs>
</svg>
