<svg width="512" height="512" viewBox="0 0 512 512" fill="none" xmlns="http://www.w3.org/2000/svg">
<g clip-path="url(#clip0_108_3971)">
<path d="M256 512C397.385 512 512 397.385 512 256C512 114.615 397.385 0 256 0C114.615 0 0 114.615 0 256C0 397.385 114.615 512 256 512Z" fill="#FF6600"/>
<path d="M255.52 83.76C351.28 83.76 428.72 161.2 428.72 256.944C428.655 275.604 425.642 294.137 419.792 311.856H368.176V166.352L255.536 278.992L142.896 166.352V311.856H91.2636C85.419 294.136 82.4112 275.603 82.3516 256.944C82.3516 161.2 159.776 83.76 255.52 83.76ZM229.728 304.32L256 330.16L281.808 304.336L330.624 255.056V346.576H403.376C387.944 371.956 366.235 392.932 340.34 407.482C314.445 422.033 285.238 429.667 255.536 429.648C193.104 429.648 138.192 396.336 107.696 346.576H180.432V255.056L229.712 304.336L229.728 304.32Z" fill="white"/>
</g>
<defs>
<clipPath id="clip0_108_3971">
<rect width="512" height="512" fill="white"/>
</clipPath>
</defs>
</svg>
