<svg width="512" height="512" viewBox="0 0 512 512" fill="none" xmlns="http://www.w3.org/2000/svg">
<g clip-path="url(#clip0_108_3955)">
<path d="M256 512C397.385 512 512 397.385 512 256C512 114.615 397.385 0 256 0C114.615 0 0 114.615 0 256C0 397.385 114.615 512 256 512Z" fill="#23292F"/>
<path d="M369.12 128H415.36L319.12 223.312C302.294 239.89 279.621 249.183 256 249.183C232.379 249.183 209.706 239.89 192.88 223.312L96.56 128H142.88L216 200.368C226.648 210.878 241.007 216.771 255.968 216.771C270.929 216.771 285.288 210.878 295.936 200.368L369.12 128ZM142.32 393.008H96L192.88 297.12C209.706 280.542 232.379 271.249 256 271.249C279.621 271.249 302.294 280.542 319.12 297.12L416 392.992H369.68L296 320C285.352 309.49 270.993 303.597 256.032 303.597C241.071 303.597 226.712 309.49 216.064 320L142.304 393.008H142.32Z" fill="white"/>
</g>
<defs>
<clipPath id="clip0_108_3955">
<rect width="512" height="512" fill="white"/>
</clipPath>
</defs>
</svg>
